<svg xmlns="http://www.w3.org/2000/svg" xmlns:xlink="http://www.w3.org/1999/xlink" xmlns:inkscape="http://www.inkscape.org/namespaces/inkscape" version="1.1" width="842" height="595" viewBox="0 0 842 595">
<defs>
<clipPath id="clip_1">
<path transform="matrix(1,0,0,-1,0,595)" d="M0 0H842V595H0Z"/>
</clipPath>
<clipPath id="clip_2">
<path transform="matrix(1,0,0,-1,0,595)" d="M7.356262 120.8947H289.79536V473.2259H7.356262Z"/>
</clipPath>
<clipPath id="clip_3">
<path transform="matrix(1,0,0,-1,0,595)" d="M541.9139 120.5874H834.6437V472.8363H541.9139Z"/>
</clipPath>
<clipPath id="clip_4">
<path transform="matrix(1,0,0,-1,0,595)" d="M288.6618 123.7486H547.9697V474.4127H288.6618Z"/>
</clipPath>
</defs>
<g clip-path="url(#clip_2)">
<path transform="matrix(1,0,0,-1,0,595)" d="M31.56108 338.8896C37.1057 352.3057 43.1815 365.4962 49.77408 378.4297 56.43712 391.5014 63.6227 404.3001 71.31343 416.7949 73.81134 420.4152 76.42889 423.9514 79.16173 427.3978 81.8199 430.7501 84.58727 434.0173 87.57675 437.0782 93.25924 442.8965 99.69773 447.9249 106.7194 452.0284 110.8755 454.106 115.3183 455.5517 119.9011 456.3179 124.4928 457.0855 129.1736 457.1623 133.7881 456.5456 138.7796 455.899 143.5214 453.9813 147.5593 450.9765 151.6887 447.9034 154.9392 443.8003 156.9858 439.0772 158.4182 434.7778 159.1909 430.2863 159.2777 425.7554 159.372 420.8295 158.6549 415.9216 157.1552 411.2286L152.045 395.8596 140.1428 367.0319 127.0571 334.2367C126.2514 332.1358 125.6213 329.9717 125.1731 327.7667 124.7479 325.6752 124.4879 323.5534 124.3953 321.4211 124.0635 319.4467 124.4859 317.4197 125.5788 315.7423 126.4477 314.4087 127.6985 313.3681 129.1678 312.7563 131.7349 312.3004 134.3611 312.2868 136.9327 312.7161 139.5178 313.1476 142.0094 314.0202 144.2989 315.2958 147.3173 316.7944 150.1258 318.6829 152.6523 320.913 155.5442 323.4656 158.0364 326.4382 160.0452 329.7311L168.6993 349.8855 179.1887 377.4226 193.1105 413.7767C196.4574 420.468 200.0422 427.0173 203.8547 433.4138 207.3705 439.3127 211.1008 445.1197 215.5825 450.3705 221.1816 456.9303 227.8484 462.4974 235.3016 466.8367 239.7501 469.3897 244.6418 471.0771 249.7182 471.8097 254.5156 472.502 259.3982 472.3296 264.1348 471.3006 268.9749 469.8 273.3446 467.0729 276.819 463.3841 280.4013 459.5809 282.9051 454.8916 284.0726 449.7991 285.5036 443.2038 286.2197 436.4735 286.2085 429.7247 286.1966 422.5313 285.3587 415.363 283.7113 408.3607L277.7061 383.4007 267.935 346.3561 264.5754 333.9919C264.5428 333.3722 264.5255 332.7519 264.5236 332.1313 264.5217 331.5178 264.5375 330.8927 264.7812 330.3284 265.2312 329.2863 266.3203 328.6716 267.4451 328.8249 270.8354 328.9254 274.1967 328.1727 277.2205 326.6359 279.9529 325.2472 282.3338 323.2553 284.183 320.8108 286.3767 316.9826 287.8234 312.7727 288.4463 308.4047 289.0882 303.903 288.8431 299.3193 287.7248 294.9117 286.992 289.8256 285.7197 284.832 283.9295 280.0154 282.2023 275.3685 280.0023 270.9114 277.3641 266.7142 274.2256 261.3679 270.3294 256.5043 265.7969 252.2746 261.8161 248.5599 257.3787 245.3669 252.5917 242.7726L241.6489 238.0612C239.1258 236.9473 236.8303 235.3769 234.8777 233.4292 231.9295 230.4884 229.8531 226.7888 228.8783 222.7404L221.0561 196.9131 212.8768 173.2652C209.9641 164.5742 205.701 156.3961 200.2441 149.0314 196.9222 144.5482 193.1772 140.3947 189.0606 136.6281 183.3356 130.5273 176.0766 126.0769 168.0428 123.7423 161.4969 121.8401 154.613 121.4 147.8782 122.4532 142.6344 122.6001 137.5421 124.2449 133.2033 127.1935 128.2459 130.5625 124.5206 135.4545 122.5912 141.1293 120.7502 146.6873 119.6904 152.4742 119.4423 158.3239 119.1823 164.451 119.8151 170.5834 121.3209 176.5283L127.9779 206.2319 130.2923 217.2787C130.6008 219.8353 129.521 222.3621 127.4601 223.9062 125.8196 225.1354 123.7274 225.5945 121.7229 225.1653 118.9218 224.8803 116.1444 224.398 113.4113 223.7218 109.5762 222.7731 105.8492 221.4486 102.1606 220.0356 98.28662 218.5516 94.45112 216.9689 90.6579 215.2891 80.00161 211.0009 68.86144 208.0304 57.48485 206.4436 54.31894 206.002 51.1373 205.6683 47.94241 205.5581 44.43513 205.4372 40.92375 205.5861 37.43931 206.0036 31.05802 207.1453 25.14752 210.1212 20.43015 214.5676 16.07004 218.6773 12.89953 223.8873 11.25291 229.6483 9.367143 236.8962 8.394427 244.3514 8.357363 251.8405 8.318893 259.6136 9.288507 267.359 11.24195 274.8828 12.47137 281.6408 13.96928 288.3473 15.73211 294.9862 17.49557 301.6275 19.52274 308.1959 21.80881 314.6758L31.56108 338.8896ZM31.56108 338.8896" fill="#234a27"/>
</g>
<g clip-path="url(#clip_3)">
<path transform="matrix(1,0,0,-1,0,595)" d="M566.1187 338.4999C571.6634 351.916 577.7391 365.1065 584.3317 378.0399 590.9948 391.1117 598.1804 403.9104 605.8711 416.4051 608.369 420.0254 610.9865 423.5617 613.7194 427.0081 616.3775 430.3604 619.1449 433.6275 622.1344 436.6885 627.8169 442.5067 634.2554 447.5351 641.2771 451.6387 645.4331 453.7163 649.8759 455.162 654.4587 455.9282 659.0505 456.6958 663.7312 456.7726 668.3457 456.1559 673.3372 455.5092 678.0791 453.5916 682.1169 450.5867 686.2464 447.5137 689.4968 443.4106 691.5434 438.6875 692.9758 434.3881 693.7485 429.8965 693.8353 425.3657 693.9297 420.4398 693.2126 415.5319 691.7128 410.8389L686.6027 395.4699 674.7004 366.6421 661.6147 333.847C660.8091 331.7461 660.1789 329.582 659.7307 327.377 659.3056 325.2855 659.0455 323.1637 658.953 321.0314 658.6211 319.057 659.0435 317.03 660.1365 315.3526 661.0053 314.019 662.2561 312.9784 663.7255 312.3666 666.2926 311.9107 668.9187 311.8971 671.4904 312.3264 674.0754 312.7579 676.5671 313.6305 678.8565 314.9061 681.8749 316.4047 684.6834 318.2932 687.2099 320.5233 690.1019 323.0759 692.594 326.0484 694.6029 329.3414L703.257 349.4958 713.7463 377.0329 727.6682 413.387C731.015 420.0783 734.5999 426.6276 738.4123 433.0241 741.9282 438.923 745.6585 444.73 750.1402 449.9808 755.7392 456.5406 762.406 462.1076 769.8593 466.447 774.3078 468.9999 779.1995 470.6873 784.2759 471.42 789.0732 472.1123 793.9558 471.9399 798.6924 470.9108 803.5326 469.4103 807.9022 466.6832 811.3767 462.9944 814.9589 459.1912 817.4627 454.5019 818.6302 449.4094 820.0612 442.8141 820.7773 436.0837 820.7662 429.335 820.7542 422.1415 819.9164 414.9733 818.269 407.971L812.2637 383.0109 802.4926 345.9664 799.133 333.6022C799.1004 332.9825 799.0832 332.3621 799.0812 331.7416 799.0794 331.1281 799.0951 330.5029 799.3388 329.9387 799.7889 328.8966 800.878 328.2819 802.0027 328.4352 805.4056 328.6959 808.8282 328.4141 812.1426 327.6001 816.583 326.5097 820.7414 324.4892 824.3428 321.6721 828.2598 317.9592 831.0956 313.2527 832.5478 308.0547 833.7788 303.6482 833.9758 299.017 833.1234 294.522 832.4638 288.8105 830.8625 283.2477 828.3847 278.0595 825.7272 272.4951 822.1029 267.4467 817.6805 263.1493 812.9362 258.1693 807.6221 253.7653 801.8478 250.0282 797.201 247.0209 792.2795 244.4609 787.1493 242.3829L776.2065 237.6715C773.6539 236.6115 771.3484 235.0344 769.4353 233.0395 766.6147 230.0982 764.7508 226.3718 764.0888 222.3507L756.988 196.5234 749.378 172.8755C745.8447 164.092 741.1736 155.8104 735.4846 148.2429 732.2288 143.9122 728.6517 139.8327 724.7835 136.039 718.592 129.9876 710.9557 125.6204 702.6004 123.3526 696.0341 121.5703 689.1756 121.1319 682.4359 122.0635 677.192 122.2103 672.0998 123.8552 667.7609 126.8038 662.8035 130.1728 659.0783 135.0648 657.1488 140.7396 655.3079 146.2976 654.2481 152.0845 653.9999 157.9342 653.7399 164.0613 654.3728 170.1937 655.8785 176.1386L662.5356 205.8422 664.85 216.889C665.1585 219.4456 664.0787 221.9724 662.0178 223.5165 660.3772 224.7457 658.285 225.2048 656.2805 224.7755 653.4795 224.4906 650.7021 224.0082 647.9689 223.3321 644.1339 222.3834 640.4068 221.0589 636.7183 219.6459 632.8443 218.1619 629.0088 216.5792 625.2155 214.8994 614.5593 210.6112 603.4191 207.6407 592.0425 206.0539 588.8766 205.6123 585.6949 205.2786 582.5001 205.1684 578.9928 205.0475 575.4814 205.1964 571.997 205.6138 565.6157 206.7556 559.7052 209.7315 554.9878 214.1779 550.6277 218.2876 547.4572 223.4976 545.8106 229.2586 543.9248 236.5065 542.9521 243.9616 542.915 251.4508 542.8765 259.2239 543.8462 266.9692 545.7996 274.493 547.029 281.2511 548.5269 287.9575 550.2898 294.5965 552.0532 301.2377 554.0804 307.8061 556.3665 314.2861L566.1187 338.4999ZM566.1187 338.4999" fill="#234a27"/>
</g>
<g clip-path="url(#clip_4)">
<path transform="matrix(1,0,0,-1,0,595)" d="M453.6284 473.402C450.9726 473.3654 448.3215 473.2524 445.67 473.0247 434.5958 472.0736 423.7239 469.4519 413.4248 465.2721 399.0338 459.029 385.6055 450.7577 373.5299 440.7451 360.7402 430.1406 349.5871 417.7062 340.4956 403.8003 329.3588 387.4718 319.9282 370.0432 312.3325 351.7963 304.5713 333.152 298.7766 313.7391 295.0436 293.892 292.1062 280.2394 290.3534 266.3743 289.8294 252.4191 289.3377 239.3227 289.9297 226.1775 291.5789 213.176 292.8243 203.9608 295.0794 194.9361 298.3024 186.2135 301.1707 178.4508 304.7859 170.9736 309.108 163.9162 313.348 156.9424 318.5833 150.6184 324.6131 145.1179 330.3299 139.9032 336.7155 135.4783 343.6173 131.9797 352.5991 128.0077 362.1886 125.6238 371.9862 124.9475 381.5417 124.2879 391.1585 125.2736 400.3895 127.829 411.7757 130.4238 422.7703 134.5227 433.0807 140.0067 444.1565 145.8978 454.3227 153.3374 463.302 162.0982 469.9463 168.0039 476.238 174.3168 482.1003 180.9994 488.3509 188.1246 494.0986 195.6495 499.355 203.5367 505.0863 211.8659 510.3528 220.5253 515.0659 229.4701 520.0468 238.9232 524.4008 248.6642 528.1699 258.6624 531.8562 267.6182 535.0352 276.7765 537.6376 286.1051 540.1442 295.0902 542.1388 304.233 543.6064 313.445 545.1736 324.0652 546.181 334.7599 546.6594 345.4844 547.1356 356.1602 547.0612 366.8548 546.4536 377.5238 545.3587 388.1561 543.1243 398.6276 539.7644 408.7743 536.2211 419.4748 531.4762 429.7215 525.5971 439.3387 519.9435 447.5063 512.7644 454.5294 504.4662 459.9893 496.2309 465.4078 487.0251 469.2001 477.3664 471.1723 469.5445 472.7713 461.5959 473.5119 453.6284 473.402ZM438.7064 377.6611C440.8426 377.5941 442.8878 376.8495 444.5723 375.5342 446.4752 374.0485 447.7554 371.9301 448.8946 369.8056 450.0517 367.6474 451.0892 365.4226 451.9133 363.1164 452.745 360.789 453.3493 358.3888 453.7314 355.947 454.3538 350.2333 454.5791 344.5038 454.3488 338.7609 454.1255 333.1933 453.4826 327.636 452.4621 322.1581 451.3235 315.0944 449.7142 308.1208 447.6596 301.2673 445.6451 294.5473 443.2145 287.9481 440.353 281.5428 437.6188 275.4521 434.4241 269.5971 430.8166 263.9794 427.7172 259.1528 424.3186 254.5124 420.6285 250.1208 419.0723 248.5352 417.4348 247.0434 415.7231 245.6271 413.8983 244.1172 411.9821 242.6965 409.8572 241.6479 406.2056 239.8458 402.0884 239.1881 398.0568 239.7612 395.2138 240.6399 392.7308 242.4152 390.956 244.8038 389.7878 246.3761 388.987 248.1615 388.349 249.9836 387.6989 251.8402 387.2022 253.7407 386.9082 255.7123 386.265 261.4588 386.075 267.2571 386.2908 273.0355 386.5282 279.3976 387.2833 285.7328 388.5548 291.971 389.5634 297.8755 390.8568 303.7207 392.4311 309.5001 394.0156 315.3171 395.88 321.0508 398.0225 326.6861 399.4037 330.8983 400.9892 335.0386 402.7564 339.104 404.5586 343.2497 406.5377 347.3258 408.7252 351.2817 411.4008 356.1876 414.423 360.8005 417.747 365.106 421.1314 369.4898 424.9764 373.7722 430.2335 376.0488 432.8973 377.2024 435.8051 377.7572 438.7064 377.6611ZM438.7064 377.6611" fill="#234a27"/>
</g>
</svg>
