<svg xmlns="http://www.w3.org/2000/svg" xmlns:xlink="http://www.w3.org/1999/xlink" xmlns:inkscape="http://www.inkscape.org/namespaces/inkscape" version="1.1" width="283.4646" height="283.4646" viewBox="0 0 283.4646 283.4646">
<defs>
<clipPath id="clip_1">
<path transform="matrix(1,0,0,-1,0,283.4646)" d="M0 0H283.4646V283.4646H0Z"/>
</clipPath>
<clipPath id="clip_2">
<path transform="matrix(1,0,0,-1,0,283.4646)" d="M16.4815 61.21597H142.0983V222.24857H16.4815Z"/>
</clipPath>
<clipPath id="clip_3">
<path transform="matrix(1,0,0,-1,0,283.4646)" d="M140.0983 60.27547H266.983V223.18907H140.0983Z"/>
</clipPath>
</defs>
<g clip-path="url(#clip_1)">
<path transform="matrix(1,0,0,-1,0,283.4646)" d="M0 283.4646H284V-.5354331H0Z" fill="#ffffff"/>
<path transform="matrix(1,0,0,-1,0,283.4646)" d="M-.00000532904 0H283.4646V283.4646H-.00000532904Z" fill="#adc787"/>
</g>
<g clip-path="url(#clip_2)">
<path transform="matrix(1,0,0,-1,0,283.4646)" d="M119.8701 221.2231C117.9211 221.2833 115.9762 221.2332 114.0301 221.1121 111.4894 220.9539 108.9609 220.6442 106.4581 220.1794 103.3974 219.2426 100.4059 218.0793 97.53155 216.671 94.44048 215.1565 91.48323 213.3808 88.69385 211.3639 84.43929 207.8575 80.3897 204.1036 76.56976 200.1281 72.23316 195.6149 68.21862 190.8271 64.51229 185.7835 60.49768 180.3246 56.6796 174.7046 53.09878 168.9518 48.8345 162.1012 44.90176 155.0484 41.28556 147.8346 38.84426 142.8195 36.4751 137.7742 34.17987 132.6906 31.36811 126.4629 28.66431 120.1839 26.07494 113.8605 24.73435 110.3706 23.4685 106.8569 22.27784 103.313 21.28474 100.3571 20.34517 97.37581 19.45777 94.38649 18.94934 91.87826 18.53599 89.35341 18.21427 86.81448 17.8564 83.99035 17.60613 81.15386 17.4815 78.30986 17.52629 75.93051 17.97338 73.58602 18.81381 71.3596 19.39264 69.8262 20.15673 68.36242 21.07875 67.00737 22.7501 65.32416 24.77789 64.0419 27.00757 63.23247 28.55809 62.6696 30.17788 62.34337 31.82611 62.27764 33.78645 62.12072 35.77056 62.26392 37.68831 62.69954 39.42961 63.09507 41.09434 63.73253 42.66229 64.58699 44.38018 65.65432 46.01421 66.86216 47.52525 68.20645 48.92316 69.45013 50.20466 70.79929 51.38897 72.24781L57.53983 81.19655 62.80249 89.74558 66.99928 96.16291C67.75982 97.33931 68.6445 98.44328 69.64171 99.42709 70.68408 100.4555 71.83562 101.3479 73.08353 102.1139 74.05601 102.7324 75.11884 103.188 76.23668 103.4684 77.39652 103.7594 78.59823 103.8607 79.78953 103.7571 80.8256 103.8308 81.87592 103.6532 82.83165 103.2464 83.92277 102.782 84.86412 102.0284 85.5629 101.0703 86.15211 100.1616 86.61737 99.17307 86.93963 98.13918 87.30594 96.96398 87.48227 95.75065 87.47256 94.51972L87.42815 86.14832C87.39436 83.65235 87.69799 81.17236 88.31636 78.75396 88.65007 77.4489 89.066 76.1789 89.58206 74.93465 90.02348 73.89386 90.58824 72.90569 91.26966 72.00356 91.93944 71.11685 92.71651 70.30607 93.57901 69.60539 95.30536 68.45005 97.24924 67.63882 99.28577 67.22942 101.2321 66.83817 103.2378 66.81526 105.1924 67.1628 106.9812 67.46387 108.7113 67.9816 110.3884 68.67276 111.9585 69.31983 113.4731 70.13309 114.8739 71.09314 116.4189 72.09925 117.8414 73.26796 119.1373 74.57937 120.5014 75.95978 121.7133 77.4812 122.7346 79.13145 123.8645 80.91233 124.8964 82.76499 125.8211 84.66057 126.8401 86.74941 127.7305 88.87991 128.4857 91.0779 129.1464 93.16619 129.79 95.26352 130.4176 97.36199 131.1116 99.68278 131.785 102.018 132.4161 104.3567 133.4846 108.3166 134.415 112.3068 135.2361 116.3253 136.1409 121.0457 136.9574 125.7815 137.6565 130.5367 138.3511 135.2617 138.9428 139.9975 139.4329 144.7481 139.9241 150.5904 140.3082 156.4561 140.5876 162.3125 140.8657 168.1418 141.0305 173.9746 141.0983 179.8102 141.0908 183.3708 140.8744 186.9108 140.4544 190.4466 140.0184 194.1172 139.3745 197.7578 138.5003 201.3494 137.8728 204.0686 136.9103 206.7052 135.6358 209.1878 134.3173 211.7563 132.6765 214.1425 130.7507 216.2935 129.2362 217.6672 127.5091 218.8098 125.6434 219.6465 123.8135 220.4672 121.8629 220.9981 119.8701 221.2231ZM96.0438 167.4197C96.63802 167.2326 97.17895 166.9044 97.62037 166.4649 98.15246 165.935 98.50417 165.2667 98.66402 164.533L98.68623 158.1823 97.70919 151.0988 95.84395 145.0145C95.55338 144.2226 95.20297 143.4561 94.7781 142.7274 94.27221 141.8597 93.67702 141.0505 93.00167 140.307 92.62054 139.6639 92.10892 139.0943 91.51392 138.6416 90.8351 138.1253 90.06063 137.7772 89.22678 137.598 88.61185 137.4189 87.97873 137.3023 87.33933 137.2649 86.62651 137.2232 85.9085 137.2617 85.20762 137.3981 84.55551 137.4299 83.92148 137.6073 83.34238 137.9089 82.86768 138.156 82.43589 138.4891 82.07667 138.8859 81.7255 139.5746 81.4632 140.302 81.32169 141.062 81.12718 142.1068 81.14526 143.1978 81.3661 144.2374 81.57676 145.1872 81.8283 146.1074 82.12108 147.0352 82.49198 148.2105 82.93268 149.3722 83.4312 150.4993 84.20319 152.0845 85.00501 153.6703 85.82937 155.229 86.46954 156.4394 87.13437 157.6328 87.80564 158.8262 88.4329 160.0302 89.14449 161.1883 89.93734 162.2903 90.7606 163.4345 91.66253 164.5228 92.64639 165.5322 93.044 166.1035 93.56648 166.5554 94.17855 166.8868 94.75157 167.1969 95.39335 167.3815 96.0438 167.4197ZM96.0438 167.4197" fill="#244a27"/>
</g>
<g clip-path="url(#clip_3)">
<path transform="matrix(1,0,0,-1,0,283.4646)" d="M144.9286 115.2373C147.852 128.2773 151.3181 141.1898 155.3178 153.9409 159.368 166.8536 163.9619 179.5894 169.0871 192.1143 170.5469 196.8642 172.9774 201.2591 176.2245 205.0206 178.8239 208.0318 181.9071 210.5885 185.3472 212.5858 189.2883 214.3658 193.3714 215.8127 197.5539 216.9113 201.6464 217.9864 205.8201 218.7243 210.0332 219.1177 215.7702 219.9945 221.5343 220.684 227.3163 221.1851 232.8057 221.6607 238.3084 221.9663 243.8167 222.1012 246.932 222.3386 250.0381 222.0925 253.0316 221.3942 255.8512 220.7364 258.6081 219.6687 260.9407 217.8719 262.1133 216.9685 263.1482 215.8993 264.0129 214.6979 265.2848 211.927 265.956 208.9182 265.9823 205.8694 266.0085 202.8252 265.3911 199.8098 264.1705 197.0208 262.8762 193.4578 260.8349 190.2129 258.1834 187.5037 256.1137 185.3889 253.7044 183.6357 251.0555 182.3167 247.5918 180.7966 243.9855 179.6245 240.2899 178.8178 236.684 178.0306 233.0103 177.595 229.3203 177.5172L212.4795 175.6027C209.9007 175.4818 207.4452 174.4634 205.5378 172.7237 204.2959 171.5911 203.3315 170.1876 202.7194 168.6221 202.1693 167.5939 201.7028 166.5229 201.3247 165.4197 200.9544 164.3394 200.67 163.2315 200.4741 162.1063L200.0562 158.774C200.0636 157.8255 200.546 156.9438 201.3408 156.426 202.3644 155.7593 203.6123 155.8333 204.7701 155.9027 205.7706 155.9627 206.7836 156.0258 207.8174 156.0918 209.906 156.2625 212.0013 156.3393 214.0968 156.3219 216.0122 156.3061 217.9261 156.2115 219.8336 156.0386 222.7594 155.6527 225.4803 154.3258 227.5859 152.2581 229.2462 150.6277 230.4575 148.5963 231.1025 146.3604 231.4753 144.3281 231.5259 142.2498 231.2525 140.2018 230.9728 138.1072 230.3578 136.0713 229.431 134.1721 228.3218 131.8929 226.9519 129.75 225.3487 127.7865 223.9221 126.0392 222.3187 124.4439 220.5642 123.026 217.9691 121.5243 215.2067 120.3324 212.3336 119.4749 209.6532 118.6749 206.8933 118.171 204.1031 117.9722L195.4066 117.03C193.5615 116.4957 191.9013 115.4587 190.6118 114.0348 189.242 112.5223 188.349 110.6392 188.0445 108.6214L183.1004 91.24826C182.1621 87.95604 181.0403 84.71887 179.7405 81.55193 178.9182 79.54855 178.0252 77.57489 177.0633 75.63465 175.1385 71.78607 172.2973 68.46952 168.7897 65.97684 166.6224 64.43665 164.2324 63.23671 161.7026 62.41854 159.3756 61.45255 156.8423 61.09 154.3378 61.36453 151.6659 61.65744 149.122 62.66389 146.973 64.27836 145.829 65.4289 144.8292 66.71442 143.9958 68.10654 141.9653 71.49812 140.9727 75.41021 141.1407 79.35959 141.0579 82.34321 141.0965 85.32897 141.2562 88.30946 141.4167 91.30675 141.6997 94.29623 142.1044 97.27043L144.9286 115.2373ZM144.9286 115.2373" fill="#244a27"/>
</g>
</svg>
