<svg xmlns="http://www.w3.org/2000/svg" xmlns:xlink="http://www.w3.org/1999/xlink" xmlns:inkscape="http://www.inkscape.org/namespaces/inkscape" version="1.1" width="164.6929" height="91.55906" viewBox="0 0 164.6929 91.55906">
<defs>
<clipPath id="clip_1">
<path transform="matrix(1,0,0,-1,0,91.55906)" d="M0 0H164.6929V91.55906H0Z"/>
</clipPath>
<clipPath id="clip_2">
<path transform="matrix(1,0,0,-1,0,91.55906)" d="M2.948081 .8346473H78.99755V90.72512H2.948081Z"/>
</clipPath>
<clipPath id="clip_3">
<path transform="matrix(1,0,0,-1,0,91.55906)" d="M82.52979 .7125078H161.8576V90.7745H82.52979Z"/>
</clipPath>
</defs>
<g clip-path="url(#clip_2)">
<path transform="matrix(1,0,0,-1,0,91.55906)" d="M28.97745 88.72441 28.94148 79.50741H12.38774L12.32607 67.19061 28.99287 67.07733 29.0237 62.44308 6.148613 62.25256 6.066384 50.51247 32.79596 50.21382C28.73313 46.73649 24.41797 43.56322 19.89114 40.71876 15.21066 37.77776 10.31458 35.19834 5.244094 33.00017L10.3166 20.58553 23.75077 27.18161 23.77132 10.73004C23.57451 8.495099 24.42391 6.295099 26.0686 4.772456 27.31439 3.619114 28.9323 2.944925 30.62717 2.877564 37.19279 2.85756 43.75538 2.848036 50.32103 2.84152 55.84983 2.836049 61.38192 2.832287 66.91074 2.83637 67.76322 2.871861 68.59424 3.097248 69.35191 3.490314 70.90251 4.29473 72.02566 5.736656 72.42522 7.439722 73.04423 9.975393 73.56737 12.53142 73.99271 15.10683 74.41618 17.67091 74.74012 20.25207 74.96918 22.84087L62.5526 26.69244 61.20096 18.21692C61.15284 17.34083 60.72033 16.52814 60.01891 16.00278 59.45393 15.57961 58.75407 15.37431 58.05056 15.42607L39.07107 15.32824C38.66017 15.49694 38.29149 15.75735 37.99695 16.09032 37.67811 16.45073 37.45475 16.88831 37.34426 17.35701 37.29546 18.6344 37.29994 19.91105 37.35967 21.18799 37.38434 21.71515 37.41933 22.24282 37.46246 22.76878 43.35762 24.53543 49.19524 26.4864 54.96697 28.62338 60.37691 30.62641 65.72499 32.79019 71.00677 35.11132L64.043 46.89776C59.72782 44.54152 55.31474 42.36367 50.81954 40.37377 46.4387 38.43449 41.9853 36.67436 37.46246 35.09588 37.38643 35.32332 37.3741 35.56725 37.42648 35.80131 37.49955 36.12774 37.69131 36.41455 37.96611 36.60458 40.63109 38.71248 43.20235 40.94118 45.66995 43.2779 48.0132 45.49687 50.25723 47.81026 52.52579 50.10569 52.68411 50.26588 52.84523 50.42972 53.00375 50.58971L76.95296 50.48157 76.99407 62.23196 62.63482 62.3401C64.81901 65.44398 66.92661 68.59674 68.95618 71.80426 70.90618 74.88605 72.78091 78.01555 74.58373 81.18603L61.75086 86.96339 55.1417 75.62494 54.87446 79.5589 43.32128 79.59494 43.36753 88.71411 28.97745 88.72441ZM49.50901 67.13397 45.84468 62.67994 43.50116 62.59241 43.47032 67.11852 49.50901 67.13397ZM49.50901 67.13397" fill="#ea0503"/>
<path transform="matrix(1,0,0,1,5.244094,2.8346482)" stroke-width="2" stroke-linecap="butt" stroke-miterlimit="4" stroke-linejoin="miter" fill="none" stroke="#ea0602" d="M23.73336 0 23.69738 9.217002H7.143648L7.081976 21.5338 23.74877 21.64708 23.77961 26.28133 .9045194 26.47185 .8222904 38.21194 27.55187 38.51059C23.48903 41.98792 19.17388 45.16119 14.64705 48.00565 9.966571 50.94665 5.070481 53.52607 0 55.72424L5.072504 68.13887 18.50667 61.5428 18.52723 77.99437C18.33041 80.22931 19.17981 82.42931 20.8245 83.95195 22.0703 85.10529 23.68821 85.77948 25.38308 85.84684 31.9487 85.86685 38.51128 85.87637 45.07693 85.88289 50.60574 85.88836 56.13782 85.89212 61.66664 85.88804 62.51913 85.85255 63.35014 85.62716 64.10782 85.23409 65.65841 84.42968 66.78157 82.98775 67.18113 81.28469 67.80014 78.74901 68.32328 76.19298 68.74862 73.61758 69.17208 71.0535 69.49602 68.47234 69.72509 65.88354L57.3085 62.03197 55.95686 70.50749C55.90874 71.38358 55.47624 72.19627 54.77482 72.72163 54.20983 73.14479 53.50998 73.3501 52.80646 73.29833L33.82697 73.39617C33.41607 73.22747 33.0474 72.96705 32.75285 72.63409 32.43402 72.27368 32.21066 71.8361 32.10016 71.3674 32.05137 70.09 32.05585 68.81335 32.11558 67.53642 32.14024 67.00926 32.17524 66.48159 32.21837 65.95563 38.11353 64.18898 43.95115 62.23801 49.72287 60.10103 55.13282 58.098 60.48089 55.93422 65.76268 53.61308L58.7989 41.82665C54.48373 44.18289 50.07065 46.36074 45.57545 48.35064 41.19461 50.28992 36.74121 52.05005 32.21837 53.62853 32.14233 53.40108 32.13001 53.15716 32.18239 52.9231 32.25546 52.59667 32.44722 52.30986 32.72202 52.11983 35.387 50.01193 37.95826 47.78323 40.42585 45.44651 42.76911 43.22754 45.01314 40.91414 47.2817 38.61872 47.44001 38.45853 47.60114 38.29469 47.75965 38.1347L71.70886 38.24283 71.74998 26.49244 57.39073 26.38431C59.57492 23.28043 61.68252 20.12767 63.71209 16.92015 65.66209 13.83835 67.53682 10.70885 69.33964 7.538375L56.50677 1.761014 49.89761 13.09947 49.63037 9.16551 38.07719 9.129466 38.12344 .01029833 23.73336 0ZM44.26492 21.59044 40.60059 26.04447 38.25706 26.132 38.22623 21.60589 44.26492 21.59044ZM44.26492 21.59044"/>
</g>
<g clip-path="url(#clip_3)">
<path transform="matrix(1,0,0,-1,0,91.55906)" d="M154.5323 88.61576C148.298 87.47507 142.0342 86.51706 135.7438 85.74495 129.4258 84.96944 123.0861 84.37684 116.7333 83.97585L116.3316 49.10238 107.7779 60.58033 107.8466 63.26575 114.4495 63.20749V75.12507L107.7885 75.11447 107.8096 88.31915 95.37559 88.31385 95.10597 75.00854 86.9065 75.09858 86.90122 63.14393 94.51916 62.96384C93.40899 57.60774 91.93641 52.3331 90.10488 47.17968 88.53363 42.75861 86.70186 38.43455 84.62271 34.22924L89.70839 21.32648C90.71016 23.32416 91.66675 25.34562 92.57899 27.38591 93.52364 29.49864 94.41788 31.63031 95.26457 33.78432L95.29629 3.137614 107.6563 3.349482 107.9576 42.69337 111.4838 36.18902C112.2358 37.35437 112.9592 38.538 113.646 39.74311 114.5335 41.30049 115.3614 42.8934 116.136 44.51014 115.9313 38.75256 115.2244 33.01964 114.0213 27.38591 112.7672 21.51324 110.9794 15.77152 108.6819 10.2246L118.8374 3.667284 122.6807 12.66108 128.7021 3.100537C131.0547 4.616945 133.2852 6.315556 135.3738 8.180072 137.392 9.981835 139.2684 11.93175 140.9934 14.01704 142.7822 11.51349 144.7997 9.180595 147.0148 7.046578 148.3538 5.756609 149.7599 4.540887 151.2335 3.407745L159.4488 13.03715C157.3705 14.81583 155.379 16.69761 153.4803 18.66754 151.4199 20.80511 149.4715 23.04861 147.6439 25.38905 149.9669 30.73259 151.8636 36.24986 153.3164 41.89357 154.972 48.32503 156.0482 54.89313 156.5253 61.51784L151.7833 65.6069 128.1735 65.63868 128.3109 71.75636C133.8681 72.23923 139.3999 72.99301 144.8843 74.01276 148.9696 74.77237 153.0288 75.67682 157.0487 76.72997L154.5323 88.61576ZM128.2581 53.58868 144.1336 53.4086C143.7399 50.46385 143.1862 47.54773 142.4736 44.66374 141.8627 42.1912 141.1353 39.74795 140.2956 37.3437 139.2781 39.643 138.3388 41.97274 137.4778 44.33535 136.5044 47.00666 135.6344 49.71751 134.8663 52.45519L128.1629 49.56319 128.2581 53.58868ZM127.7717 41.97832C128.5631 38.72895 129.5895 35.541 130.8379 32.43896 131.8891 29.827 133.0952 27.28244 134.4539 24.81701 132.9082 22.5188 131.1389 20.37824 129.1726 18.42919 127.2164 16.49016 125.078 14.74622 122.7812 13.22783 124.2083 17.91989 125.3443 22.6959 126.1804 27.52892 127.0071 32.30712 127.5353 37.13465 127.7717 41.97832ZM127.7717 41.97832" fill="#ea0503"/>
<path transform="matrix(1,0,0,1,84.62271,2.9430924)" stroke-width="2" stroke-linecap="butt" stroke-miterlimit="4" stroke-linejoin="miter" fill="none" stroke="#ea0503" d="M69.9096 .0002073914C63.67528 1.140901 57.41153 2.098907 51.12113 2.871019 44.80305 3.64653 38.46335 4.239126 32.11063 4.640117L31.70885 39.51359 23.15518 28.03564 23.2239 25.35021 29.82683 25.40848V13.4909L23.16575 13.5015 23.1869 .2968226 10.75288 .3021193 10.48327 13.60743 2.283798 13.51739 2.278512 25.47204 9.896459 25.65213C8.786285 31.00823 7.313701 36.28287 5.482173 41.43629 3.910923 45.85736 2.079152 50.18141 0 54.38673L5.085681 67.28949C6.087458 65.29181 7.044041 63.27035 7.956288 61.23006 8.900935 59.11733 9.795179 56.98566 10.64187 54.83165L10.67359 85.47836 23.03359 85.26649 23.33492 45.9226 26.86106 52.42695C27.61305 51.2616 28.33653 50.07797 29.02327 48.87286 29.91075 47.31548 30.73868 45.72257 31.51324 44.10583 31.30857 49.86341 30.60168 55.59633 29.39862 61.23006 28.14452 67.10273 26.35666 72.84445 24.05918 78.39137L34.21468 84.94869 38.05802 75.95489 44.07942 85.51543C46.432 83.99902 48.66249 82.30041 50.75107 80.4359 52.76934 78.63413 54.64573 76.68422 56.3707 74.59893 58.15949 77.10248 60.17695 79.43537 62.3921 81.56939 63.73111 82.85936 65.13717 84.07508 66.61078 85.20822L74.82611 75.57882C72.7478 73.80014 70.75634 71.91836 68.85758 69.94843 66.79722 67.81086 64.8488 65.56736 63.0212 63.22692 65.34416 57.88338 67.24086 52.36611 68.69369 46.7224 70.34933 40.29094 71.42546 33.72284 71.90264 27.09813L67.16059 23.00907 43.55077 22.97729 43.68822 16.8596C49.2454 16.37674 54.77723 15.62296 60.26161 14.60321 64.34692 13.8436 68.40612 12.93915 72.42601 11.886L69.9096 .0002073914ZM43.63535 35.02729 59.51092 35.20737C59.11722 38.15212 58.56354 41.06824 57.85094 43.95223 57.23999 46.42477 56.51255 48.86802 55.67287 51.27227 54.65535 48.97296 53.71611 46.64323 52.85513 44.28062 51.88165 41.60931 51.01169 38.89846 50.24356 36.16078L43.54019 39.05278 43.63535 35.02729ZM43.14899 46.63765C43.94042 49.88702 44.9668 53.07496 46.2152 56.17701 47.26636 58.78897 48.47249 61.33353 49.83121 63.79896 48.28552 66.09717 46.51624 68.23773 44.54993 70.18678 42.59372 72.12581 40.45531 73.86975 38.15846 75.38814 39.58557 70.69608 40.72162 65.92007 41.55773 61.08705 42.38436 56.30885 42.91259 51.48131 43.14899 46.63765ZM43.14899 46.63765"/>
</g>
</svg>
