<svg xmlns="http://www.w3.org/2000/svg" xmlns:xlink="http://www.w3.org/1999/xlink" xmlns:inkscape="http://www.inkscape.org/namespaces/inkscape" version="1.1" width="164.6929" height="91.55906" viewBox="0 0 164.6929 91.55906">
<defs>
<clipPath id="clip_1">
<path transform="matrix(1,0,0,-1,0,91.55906)" d="M0 0H164.6929V91.55906H0Z"/>
</clipPath>
<clipPath id="clip_2">
<path transform="matrix(1,0,0,-1,0,91.55906)" d="M3.203497 1.129008H78.74197V90.43057H3.203497Z"/>
</clipPath>
<clipPath id="clip_3">
<path transform="matrix(1,0,0,-1,0,91.55906)" d="M82.80477 1.104718H161.57434V90.44048H82.80477Z"/>
</clipPath>
</defs>
<g clip-path="url(#clip_2)">
<path transform="matrix(1,0,0,1,5.176153,2.8790055)" stroke-width="1.5" stroke-linecap="butt" stroke-miterlimit="4" stroke-linejoin="miter" fill="none" stroke="#ea0602" d="M23.75427 0 23.71826 9.207481H7.149943L7.088216 21.51156 23.7697 21.62472 23.80056 26.25418 .9053165 26.4445 .823015 38.17247 27.57615 38.47081C23.50973 41.94455 19.19078 45.11454 14.65995 47.95606 9.975353 50.89402 5.074949 53.47078 0 55.66668L5.076974 68.06849 18.52298 61.47922 18.54356 77.91381C18.34657 80.14644 19.19671 82.34416 20.84285 83.86523 22.08974 85.01738 23.70908 85.69088 25.40544 85.75817 31.97685 85.77815 38.54522 85.78766 45.11665 85.79418 50.65033 85.79964 56.18729 85.8034 61.72098 85.79932 62.57422 85.76386 63.40596 85.53871 64.1643 85.14605 65.71627 84.34247 66.84041 82.90203 67.24032 81.20072 67.85988 78.66767 68.38348 76.11428 68.8092 73.54154 69.23304 70.98011 69.55726 68.40161 69.78653 65.81548L57.359 61.96789 56.00617 70.43466C55.95801 71.30984 55.52512 72.1217 54.82308 72.64651 54.2576 73.06924 53.55713 73.27433 52.85299 73.22262L33.85678 73.32035C33.44552 73.15183 33.07652 72.89168 32.78172 72.55906 32.4626 72.19902 32.23904 71.7619 32.12845 71.29368 32.07961 70.0176 32.08409 68.74227 32.14388 67.46666 32.16856 66.94004 32.20359 66.41291 32.24676 65.8875 38.14711 64.12268 43.98987 62.17372 49.76669 60.03895 55.1814 58.03799 60.53419 55.87644 65.82062 53.5577L58.85071 41.78345C54.53173 44.13725 50.11477 46.31285 45.6156 48.3007 41.23091 50.23797 36.77358 51.99628 32.24676 53.57314 32.17066 53.34592 32.15832 53.10225 32.21075 52.86843 32.28388 52.54234 32.47581 52.25582 32.75085 52.06599 35.41818 49.96027 37.99171 47.73387 40.46147 45.39957 42.8068 43.18289 45.0528 40.87188 47.32336 38.57883 47.48182 38.41881 47.64308 38.25513 47.80174 38.09531L71.77205 38.20333 71.8132 26.46508 57.4413 26.35706C59.62741 23.25638 61.73687 20.10688 63.76823 16.90267 65.71995 13.82406 67.59633 10.69779 69.40074 7.530588L56.55656 1.759195 49.94158 13.08594 49.6741 9.156042 38.11074 9.120036 38.15703 .01028769 23.75427 0ZM44.30392 21.56814 40.63636 26.01756 38.29077 26.10501 38.25991 21.58357 44.30392 21.56814ZM44.30392 21.56814"/>
</g>
<g clip-path="url(#clip_3)">
<path transform="matrix(1,0,0,1,84.62471,2.9873429)" stroke-width="1.5" stroke-linecap="butt" stroke-miterlimit="4" stroke-linejoin="miter" fill="none" stroke="#ea0503" d="M69.97121 0C63.73139 1.139515 57.46212 2.096532 51.16618 2.867846 44.84253 3.642556 38.49724 4.234541 32.13892 4.635117L31.73679 39.47257 23.17558 28.00648 23.24437 25.32382 29.85311 25.38203V13.47676L23.18616 13.48734 23.20733 .2963088 10.76236 .3016001 10.49251 13.59317 2.285811 13.50322 2.28052 25.44552 9.90518 25.62542C8.794027 30.97599 7.320145 36.24519 5.487004 41.39329 3.914369 45.80978 2.080984 50.12937 0 54.33034L5.090162 67.21977C6.092822 65.22416 7.050248 63.20479 7.963299 61.16661 8.908779 59.05605 9.80381 56.92659 10.65124 54.7748L10.68299 85.38986 23.05388 85.17821 23.35548 45.87496 26.88473 52.37259C27.63738 51.20844 28.3615 50.02603 29.04885 48.82217 29.93711 47.2664 30.76577 45.67513 31.54101 44.06006 31.33616 49.8117 30.62865 55.5387 29.42452 61.16661 28.16932 67.03321 26.37989 72.769 24.08038 78.31019L34.24483 84.86073 38.09156 75.87623 44.11826 85.42689C46.47291 83.91205 48.70537 82.2152 50.7958 80.35261 52.81584 78.5527 54.69388 76.6048 56.42037 74.52167 58.21074 77.02263 60.22997 79.35312 62.44708 81.48493 63.78727 82.77356 65.19457 83.98803 66.66948 85.12L74.89205 75.50055C72.81191 73.7237 70.81869 71.84386 68.91825 69.87597 66.85608 67.74061 64.90595 65.49943 63.07674 63.1614 65.40174 57.82338 67.30011 52.31181 68.75423 46.67393 70.41133 40.24911 71.4884 33.6878 71.966 27.06993L67.21977 22.9851 43.58914 22.95335 43.72671 16.84198C49.28879 16.35962 54.82549 15.60662 60.31472 14.58792 64.40363 13.82909 68.4664 12.92558 72.48983 11.87352L69.97121 0ZM43.6738 34.9909 59.56336 35.1708C59.16931 38.1125 58.61515 41.02561 57.90192 43.90662 57.29043 46.37661 56.56235 48.81734 55.72193 51.2191 54.70351 48.92217 53.76345 46.59485 52.9017 44.23468 51.92736 41.56612 51.05664 38.85808 50.28784 36.12322L43.57856 39.01223 43.6738 34.9909ZM43.18701 46.58927C43.97914 49.83529 45.00643 53.01993 46.25592 56.11878 47.30801 58.72803 48.5152 61.26997 49.87512 63.73285 48.32807 66.02868 46.55723 68.16703 44.58918 70.11408 42.63126 72.05111 40.49096 73.79324 38.19209 75.31006 39.62045 70.62285 40.7575 65.85177 41.59435 61.02375 42.4217 56.25048 42.9504 51.42793 43.18701 46.58927ZM43.18701 46.58927"/>
</g>
</svg>
